:FULLY-SPECIFIED
:FORCE-ALL-JOINTS-BE-3DOF
:DEGREES
2446
root 2.43268 14.7525 -23.3609 923.642 85.9892 -155.682
lfemur -36.0256 19.7071 -13.2053
ltibia 72.932 0 0
lfoot -25.8678 15.7203 0
ltoes -39.6183 0 0
rfemur -39.8348 -22.711 11.0765
rtibia 61.0289 0 0
rfoot 9.65361 -2.0926 0
rtoes 1.02655 0 0
lowerback 15.844 1.099 -4.10637
upperback -0.981928 0.986361 2.72535
thorax -9.90358 0.786346 5.08663
lowerneck 3.36395 -14.314 -16.0802
upperneck 1.21788 -19.8532 14.0155
head 2.51975 -9.99457 6.00745
lclavicle 1.04382e-14 -9.63321e-15 0
lhumerus -42.9878 -40.591 112.377
lradius 103.688 0 0
lwrist 64.1651 0 0
lhand 0.332163 401.754 0
lfingers 7.12502 0 0
lthumb 25.7867 -651.355 0
rclavicle 1.04382e-14 -9.63321e-15 0
rhumerus 25.0069 10.0049 -61.2152
rradius 113.208 0 0
rwrist 5.57157 0 0
rhand -31.4943 -404.561 0
rfingers 7.12502 0 0
rthumb -4.75582 285.894 0
2447
root 2.49834 14.7452 -23.3785 924.009 85.6652 -155.092
lfemur -35.5058 19.9235 -13.1823
ltibia 73.1024 0 0
lfoot -26.1809 15.9477 0
ltoes -39.4302 0 0
rfemur -40.0364 -22.6671 10.5995
rtibia 59.7152 0 0
rfoot 10.3079 -1.57601 0
rtoes 1.60211 0 0
lowerback 15.8458 0.952869 -4.22075
upperback -0.982319 0.781272 2.82581
thorax -9.89479 0.698142 5.31313
lowerneck 3.32204 -14.2271 -16.0556
upperneck 1.41575 -19.7418 13.8583
head 2.58016 -9.93943 5.95235
lclavicle 1.05541e-14 -1.1101e-14 0
lhumerus -43.5068 -41.1138 112.577
lradius 104.285 0 0
lwrist 65.3957 0 0
lhand 1.56998 401.783 0
lfingers 7.12502 0 0
lthumb 26.9742 -651.457 0
rclavicle 1.05541e-14 -1.1101e-14 0
rhumerus 22.7979 8.59685 -62.3467
rradius 112.888 0 0
rwrist 8.39568 0 0
rhand -32.3047 -404.8 0
rfingers 7.12502 0 0
rthumb -5.5381 285.657 0
2448
root 2.56401 14.7379 -23.3962 924.376 85.3411 -154.507
lfemur -34.9987 20.1359 -13.1591
ltibia 73.277 0 0
lfoot -26.4894 16.1733 0
ltoes -39.2439 0 0
rfemur -40.2417 -22.6278 10.1338
rtibia 58.4357 0 0
rfoot 10.9377 -1.06693 0
rtoes 2.1678 0 0
lowerback 15.848 0.809265 -4.3332
upperback -0.98317 0.579654 2.92412
thorax -9.88677 0.611448 5.53535
lowerneck 3.28112 -14.1406 -16.0295
upperneck 1.61009 -19.6307 13.7023
head 2.63952 -9.88451 5.89758
lclavicle 1.06573e-14 -1.25425e-14 0
lhumerus -44.0112 -41.624 112.767
lradius 104.872 0 0
lwrist 66.6 0 0
lhand 2.78014 401.812 0
lfingers 7.12502 0 0
lthumb 28.1352 -651.556 0
rclavicle 1.06573e-14 -1.25425e-14 0
rhumerus 20.6286 7.21067 -63.4554
rradius 112.557 0 0
rwrist 11.1704 0 0
rhand -33.0977 -405.036 0
rfingers 7.12502 0 0
rthumb -6.30366 285.424 0
2449
root 2.62967 14.7306 -23.4139 924.738 85.0203 -153.935
lfemur -34.506 20.3441 -13.1355
ltibia 73.4549 0 0
lfoot -26.7932 16.3962 0
ltoes -39.0608 0 0
rfemur -40.4502 -22.5945 9.68093
rtibia 57.1959 0 0
rfoot 11.5407 -0.566253 0
rtoes 2.72175 0 0
lowerback 15.8503 0.668696 -4.44354
upperback -0.984503 0.38218 3.01997
thorax -9.87955 0.526569 5.75265
lowerneck 3.24164 -14.0554 -16.0027
upperneck 1.79996 -19.5214 13.5488
head 2.69756 -9.8305 5.84357
lclavicle 1.07479e-14 -1.39528e-14 0
lhumerus -44.5024 -42.1191 112.95
lradius 105.445 0 0
lwrist 67.7765 0 0
lhand 3.95901 401.841 0
lfingers 7.12502 0 0
lthumb 29.2662 -651.653 0
rclavicle 1.07479e-14 -1.39528e-14 0
rhumerus 18.5078 5.84952 -64.5367
rradius 112.218 0 0
rwrist 13.8864 0 0
rhand -33.8713 -405.268 0
rfingers 7.12502 0 0
rthumb -7.05043 285.195 0
2450
root 2.69534 14.7234 -23.4316 925.088 84.7058 -153.383
lfemur -34.0295 20.5477 -13.1114
ltibia 73.6357 0 0
lfoot -27.0919 16.6155 0
ltoes -38.8824 0 0
rfemur -40.6615 -22.5686 9.24246
rtibia 56.0006 0 0
rfoot 12.1146 -0.0748607 0
rtoes 3.26213 0 0
lowerback 15.8527 0.531675 -4.55158
upperback -0.98634 0.189528 3.11302
thorax -9.87315 0.443809 5.96439
lowerneck 3.20406 -13.9726 -15.9758
upperneck 1.98441 -19.4154 13.3992
head 2.754 -9.77811 5.79081
lclavicle 1.0826e-14 -1.53268e-14 0
lhumerus -44.982 -42.5969 113.127
lradius 106.003 0 0
lwrist 68.9238 0 0
lhand 5.10294 401.87 0
lfingers 7.12502 0 0
lthumb 30.3637 -651.745 0
rclavicle 1.0826e-14 -1.53268e-14 0
rhumerus 16.4447 4.51659 -65.5857
rradius 111.869 0 0
rwrist 16.534 0 0
rhand -34.6233 -405.496 0
rfingers 7.12502 0 0
rthumb -7.7764 284.97 0
2451
root 2.76101 14.7161 -23.4493 925.419 84.4008 -152.859
lfemur -33.5707 20.7464 -13.0865
ltibia 73.8185 0 0
lfoot -27.3853 16.8305 0
ltoes -38.7098 0 0
rfemur -40.8753 -22.5516 8.82003
rtibia 54.8553 0 0
rfoot 12.6569 0.406358 0
rtoes 3.78708 0 0
lowerback 15.8552 0.398712 -4.65714
upperback -0.988704 0.00237166 3.20294
thorax -9.8676 0.363473 6.16994
lowerneck 3.16882 -13.8933 -15.9494
upperneck 2.16249 -19.3139 13.2546
head 2.80857 -9.72805 5.73974
lclavicle 1.08915e-14 -1.66597e-14 0
lhumerus -45.4515 -43.0551 113.299
lradius 106.544 0 0
lwrist 70.0402 0 0
lhand 6.20829 401.897 0
lfingers 7.12502 0 0
lthumb 31.4242 -651.834 0
rclavicle 1.08915e-14 -1.66597e-14 0
rhumerus 14.448 3.21507 -66.598
rradius 111.511 0 0
rwrist 19.1039 0 0
rhand -35.3517 -405.719 0
rfingers 7.12502 0 0
rthumb -8.47951 284.75 0
2452
root 2.82667 14.7088 -23.467 925.725 84.1086 -152.368
lfemur -33.1313 20.9399 -13.0606
ltibia 74.0029 0 0
lfoot -27.673 17.0402 0
ltoes -38.5445 0 0
rfemur -41.0911 -22.5447 8.41523
rtibia 53.7649 0 0
rfoot 13.1653 0.876516 0
rtoes 4.29477 0 0
lowerback 15.8577 0.270319 -4.76003
upperback -0.991616 -0.178614 3.28938
thorax -9.86292 0.285865 6.36865
lowerneck 3.13637 -13.8185 -15.9243
upperneck 2.33326 -19.2185 13.1164
head 2.861 -9.681 5.69083
lclavicle 1.09444e-14 -1.79465e-14 0
lhumerus -45.9124 -43.4914 113.467
lradius 107.063 0 0
lwrist 71.1242 0 0
lhand 7.27143 401.924 0
lfingers 7.12502 0 0
lthumb 32.4443 -651.919 0
rclavicle 1.09444e-14 -1.79465e-14 0
rhumerus 12.5268 1.94815 -67.5687
rradius 111.146 0 0
rwrist 21.5866 0 0
rhand -36.0542 -405.936 0
rfingers 7.12502 0 0
rthumb -9.15772 284.535 0
2453
root 2.89234 14.7015 -23.4846 926 83.8324 -151.92
lfemur -32.7131 21.1279 -13.0336
ltibia 74.188 0 0
lfoot -27.9548 17.2438 0
ltoes -38.3878 0 0
rfemur -41.3086 -22.5493 8.02968
rtibia 52.7347 0 0
rfoot 13.6374 1.33473 0
rtoes 4.78334 0 0
lowerback 15.8602 0.147007 -4.86005
upperback -0.995098 -0.352753 3.37202
thorax -9.85913 0.21129 6.55989
lowerneck 3.10715 -13.7492 -15.9011
upperneck 2.49577 -19.1305 12.9859
head 2.911 -9.63768 5.64453
lclavicle 1.09847e-14 -1.91822e-14 0
lhumerus -46.3663 -43.9033 113.633
lradius 107.56 0 0
lwrist 72.1744 0 0
lhand 8.28871 401.95 0
lfingers 7.12502 0 0
lthumb 33.4205 -651.999 0
rclavicle 1.09847e-14 -1.91822e-14 0
rhumerus 10.69 0.719019 -68.4933
rradius 110.773 0 0
rwrist 23.9726 0 0
rhand -36.7289 -406.146 0
rfingers 7.12502 0 0
rthumb -9.809 284.327 0
2454
root 2.95801 14.6942 -23.5023 926.237 83.5753 -151.52
lfemur -32.3176 21.31 -13.0053
ltibia 74.3733 0 0
lfoot -28.2303 17.4405 0
ltoes -38.2411 0 0
rfemur -41.5272 -22.5669 7.66498
rtibia 51.7698 0 0
rfoot 14.0707 1.78011 0
rtoes 5.25094 0 0
lowerback 15.8625 0.0292871 -4.95702
upperback -0.999172 -0.51937 3.45053
thorax -9.85626 0.14005 6.74303
lowerneck 3.08161 -13.6865 -15.8805
upperneck 2.64907 -19.0515 12.8642
head 2.9583 -9.5988 5.6013
lclavicle 1.10126e-14 -2.03619e-14 0
lhumerus -46.8146 -44.2886 113.797
lradius 108.032 0 0
lwrist 73.1893 0 0
lhand 9.25649 401.975 0
lfingers 7.12502 0 0
lthumb 34.3492 -652.074 0
rclavicle 1.10126e-14 -2.03619e-14 0
rhumerus 8.94662 -0.469129 -69.367
rradius 110.393 0 0
rwrist 26.2524 0 0
rhand -37.3735 -406.35 0
rfingers 7.12502 0 0
rthumb -10.4313 284.125 0
2455
root 3.02367 14.687 -23.52 926.431 83.3406 -151.176
lfemur -31.9465 21.4861 -12.9754
ltibia 74.558 0 0
lfoot -28.4993 17.6295 0
ltoes -38.1058 0 0
rfemur -41.7467 -22.5989 7.32274
rtibia 50.8754 0 0
rfoot 14.4631 2.21176 0
rtoes 5.69573 0 0
lowerback 15.8647 -0.082329 -5.05076
upperback -1.00386 -0.67779 3.52456
thorax -9.85432 0.0724521 6.91741
lowerneck 3.06021 -13.6314 -15.8631
upperneck 2.7922 -18.9827 12.7527
head 3.00264 -9.56504 5.56161
lclavicle 1.1028e-14 -2.14808e-14 0
lhumerus -47.2589 -44.645 113.962
lradius 108.476 0 0
lwrist 74.1672 0 0
lhand 10.1711 401.999 0
lfingers 7.12502 0 0
lthumb 35.227 -652.144 0
rclavicle 1.1028e-14 -2.14808e-14 0
rhumerus 7.30549 -1.6131 -70.1852
rradius 110.007 0 0
rwrist 28.4167 0 0
rhand -37.9861 -406.545 0
rfingers 7.12502 0 0
rthumb -11.0226 283.931 0
2456
root 3.08934 14.6797 -23.5377 926.574 83.1315 -150.896
lfemur -31.6015 21.6557 -12.9437
ltibia 74.7416 0 0
lfoot -28.7615 17.8098 0
ltoes -37.9831 0 0
rfemur -41.9666 -22.6465 7.00455
rtibia 50.0566 0 0
rfoot 14.812 2.62881 0
rtoes 6.11586 0 0
lowerback 15.8666 -0.18733 -5.14108
upperback -1.00919 -0.827339 3.59379
thorax -9.85335 0.00879906 7.08241
lowerneck 3.04338 -13.585 -15.8495
upperneck 2.92424 -18.9256 12.6528
head 3.04374 -9.53711 5.52591
lclavicle 1.10308e-14 -2.25337e-14 0
lhumerus -47.7008 -44.9702 114.128
lradius 108.89 0 0
lwrist 75.1067 0 0
lhand 11.029 402.022 0
lfingers 7.12502 0 0
lthumb 36.0504 -652.208 0
rclavicle 1.10308e-14 -2.25337e-14 0
rhumerus 5.77561 -2.70971 -70.9432
rradius 109.615 0 0
rwrist 30.4559 0 0
rhand -38.5643 -406.733 0
rfingers 7.12502 0 0
rthumb -11.5808 283.745 0
